<svg width="24" height="24" viewBox="0 0 24 24" fill="none" xmlns="http://www.w3.org/2000/svg">
<path d="M5.86823 23.3421H0.0444883V8.1701H5.86823V23.3421ZM2.88895 5.74295C2.32115 5.7475 1.7648 5.58296 1.29047 5.27021C0.816153 4.95746 0.445241 4.5106 0.2248 3.98632C0.00435771 3.46203 -0.0556793 2.88396 0.0523057 2.32543C0.160291 1.76691 0.43143 1.25311 0.831325 0.849217C1.23122 0.445327 1.74185 0.169553 2.29842 0.0568806C2.85499 -0.0557915 3.43243 -0.000282456 3.95746 0.216365C4.4825 0.433012 4.93147 0.801034 5.24742 1.27374C5.56337 1.74644 5.73205 2.30252 5.73207 2.87143C5.73494 3.62991 5.43705 4.35848 4.9039 4.89695C4.37075 5.43543 3.64598 5.73973 2.88895 5.74295ZM23.3421 23.3421H18.6832V15.1733C18.6832 12.9326 17.6964 11.6818 15.9277 11.6818C14.0026 11.6818 12.8594 12.9839 12.8594 15.1733V23.3421H8.19907V8.1701H12.8581V9.87599C13.3714 9.08198 14.0764 8.43055 14.9077 7.98198C15.7391 7.5334 16.6699 7.30219 17.6141 7.30972C20.9102 7.30972 23.3421 9.32357 23.3421 13.4931C23.3421 17.6626 23.3421 23.3421 23.3421 23.3421Z" fill="#FDFDFD"/>
</svg>
