<svg width="26" height="18" viewBox="0 0 26 18" fill="none" xmlns="http://www.w3.org/2000/svg">
<path d="M24.4724 1.5162C23.9713 0.897279 23.2654 0.478014 22.4822 0.334185C16.0389 -0.111395 9.57247 -0.111395 3.12913 0.334185C2.49148 0.453161 1.90103 0.751641 1.42714 1.19456C-0.639365 3.11097 0.00259218 13.3819 0.506493 15.045C0.644805 15.6322 0.927136 16.1756 1.32801 16.6264C1.80139 17.094 2.40485 17.4078 3.05948 17.527C9.50857 18.0599 15.9898 18.0801 22.4421 17.5873C23.1144 17.4719 23.7356 17.1545 24.2231 16.6773C26.1355 14.7689 26.0015 3.92176 24.4724 1.5162ZM10.2427 12.2736L10.2427 5.09305C12.7956 6.29919 14.7737 7.4544 17.1123 8.70342C15.1825 9.7675 12.7957 10.9656 10.2427 12.2736Z" fill="#FDFDFD"/>
</svg>
