<svg width="249" height="90" viewBox="0 0 249 90" fill="none" xmlns="http://www.w3.org/2000/svg">
<rect width="249" height="90" rx="4" fill="#090909" fill-opacity="0.7"/>
<path fill-rule="evenodd" clip-rule="evenodd" d="M82.427 37.5383H91.0765V69.9409H82.427V57.002H71.6495V69.9409H63V37.5383H71.6495V50.4526H82.427V37.5383ZM177.353 37.5457L169.828 47.8352L162.307 37.5457H153.658L165.505 53.7421L153.658 69.9384H162.307L169.828 59.6489L177.353 69.9384H185.983L174.145 53.7421L185.983 37.5457H177.353ZM139.451 28.9108L127.65 13L119.068 36.0708L110.486 59.1417L99.6793 28.9083H63V35.3864H93.2069L106.171 69.9384H114.796L129.899 29.3466L134.378 35.3864H186V28.9083H139.448L139.451 28.9108ZM138.516 63.4629V56.9848L151.486 57.0439V50.4452L138.516 50.5043V44.1075L155.796 44.0287L151.053 37.5457H130.533H129.899V69.9409V70L151.033 69.9409L155.793 63.4629H138.514H138.516Z" fill="url(#paint0_linear_459_7)"/>
<defs>
<linearGradient id="paint0_linear_459_7" x1="124.659" y1="71.0809" x2="124.503" y2="49.9183" gradientUnits="userSpaceOnUse">
<stop stop-color="#B8B8B8"/>
<stop offset="0.35" stop-color="#BFBFBF"/>
<stop offset="0.86" stop-color="#D3D3D3"/>
<stop offset="1" stop-color="#DBDBDB"/>
</linearGradient>
</defs>
</svg>
