<svg width="40" height="21" viewBox="0 0 40 21" fill="none" xmlns="http://www.w3.org/2000/svg">
<path fill-rule="evenodd" clip-rule="evenodd" d="M6.31773 9.04043H9.13058V20.9782H6.31773V16.2113H2.81286V20.9782H0V9.04043H2.81286V13.7983H6.31773V9.04043ZM37.1879 9.04315L34.7407 12.834L32.295 9.04315H29.4822L33.3351 15.0102L29.4822 20.9773H32.295L34.7407 17.1864L37.1879 20.9773H39.9944L36.1447 15.0102L39.9944 9.04315H37.1879ZM24.8621 5.86186L21.0244 0L18.2336 8.49978L15.4427 16.9996L11.9282 5.86095H0V8.2476H9.8234L14.0395 20.9773H16.8443L21.7556 6.02242L23.2125 8.2476H40V5.86095H24.8613L24.8621 5.86186ZM24.5581 18.5916V16.2049L28.7758 16.2267V13.7956L24.5581 13.8174V11.4606L30.1774 11.4316L28.635 9.04315H21.962H21.7556V20.9782V21L28.6286 20.9782L30.1766 18.5916H24.5573H24.5581Z" fill="url(#paint0_linear_449_18)"/>
<defs>
<linearGradient id="paint0_linear_449_18" x1="20.0516" y1="21.3982" x2="19.9868" y2="13.6016" gradientUnits="userSpaceOnUse">
<stop stop-color="#B8B8B8"/>
<stop offset="0.35" stop-color="#BFBFBF"/>
<stop offset="0.86" stop-color="#D3D3D3"/>
<stop offset="1" stop-color="#DBDBDB"/>
</linearGradient>
</defs>
</svg>
